<?xml version="1.0" encoding="UTF-8"?>
<svg width="210px" height="66px" viewBox="0 0 210 66" version="1.1" xmlns="https://www.w3.org/2000/svg" xmlns:xlink="https://www.w3.org/1999/xlink">
    <title>cta-button@2x</title>
    <g id="Page-1" stroke="none" stroke-width="1" fill="none" fill-rule="evenodd">
        <g id="jointlockers-home" transform="translate(-855.000000, -414.000000)">
            <g id="Group-4" transform="translate(788.000000, 320.000000)">
                <g id="cta-button" transform="translate(67.000000, 94.000000)">
                    <path d="M27.8331504,0 C26.5407487,0 23.7359961,0.367675654 22.703496,0.995873815 L3.1969939,13.4554226 C1.30695358,14.4009721 7.2475359e-13,16.366017 7.2475359e-13,18.6443052 L7.2475359e-13,59.5501226 C7.2475359e-13,62.74178 2.55773049,65.3295457 5.71276109,65.3295457 L184.676491,65.3295457 C186.178033,65.3295457 187.540148,64.7386628 188.559788,63.780789 L205.980308,51.7135645 C206.522108,51.4362672 207.02093,51.0884474 207.468313,50.6824294 C208.883221,49.3801592 209.754974,47.5537629 209.754974,45.5168261 L209.754974,6.94749508 C209.754974,3.11052234 206.680148,0 202.887207,0 L27.8331504,0 Z" id="Extrusion" fill="#2C2730"></path>
                    <path d="M26.1844018,3.32954935 C24.5387279,3.32954935 23.2000325,4.48509714 23.2000325,5.90562542 L23.2000325,45.5534706 C23.2000325,46.9739989 24.5387279,48.1295467 26.1844018,48.1295467 L203.01565,48.1295467 C204.661324,48.1295467 206.00002,46.9739989 206.00002,45.5534706 L206.00002,5.90562542 C206.00002,4.48509714 204.661324,3.32954935 203.01565,3.32954935 L26.1844018,3.32954935 Z" id="Inner-Box" fill="#FFFFFF"></path>
                </g>
            </g>
        </g>
    </g>
</svg>